#!OML:ASF F:\VICON\USERDATA\INSTALL\rory3\rory3.ASF
:FULLY-SPECIFIED
:DEGREES
27
root 0.4922161931016012 17.51210110476211 -14.311089678879778 6.478235771073443 -0.3830231454336315 -2.0374760994514145
lfemur -14.071404870021695 7.878975223743135 -17.281905652214704
ltibia 20.154905062414073
lfoot -10.607599127866528 4.904142186444671
ltoes -12.715096799260477
rfemur -13.866805045918575 -2.4614448117318064 19.178110095300088
rtibia 21.29080536230545
rfoot -13.079500349283437 -2.1129018393080807
rtoes 4.886713440296285
lowerback -1.624566308085413 -0.6935426770046139 0.484426748054036
upperback 5.035239899214667 -1.0429110652238098 1.6932483150206716
thorax 6.1567310691203865 -0.5402552935748965 1.416486014073624
lowerneck -11.257604129962624 0.5628011185698857 -2.2855867951188
upperneck 36.04958660685705 1.1522984950651056 0.743818747846948
head 14.181185203932273 0.2766432997564784 0.8794328418115795
lclavicle 1.0938629849535748e-15 -2.2156995609869346e-15
lhumerus -15.760008829451461 -0.5351889575085762 88.38509576607967
lradius 18.580705588703612
lwrist -0.26630413522698415
lhand -23.57690121316641 -3.439596725755922
lfingers 7.12502
lthumb 2.885958777577624 26.520593320614054
rclavicle 1.0938629849535748e-15 -2.2156995609869346e-15
rhumerus -18.177910627358816 -16.405095478291596 -82.89919052360584
rradius 25.943602736934366
rwrist 31.83120785632844
rhand -18.21889402482421 -26.803698062577695
rfingers 7.12502
rthumb 8.059115961468343 -56.62999777333325
28
root 0.4891063928751505 17.509901122023635 -14.322489865900504 6.472075598727894 -0.3636982814142716 -2.0274362523464946
lfemur -14.162204731962216 7.856105274562184 -17.284505664810972
ltibia 20.249004679737254
lfoot -10.602799159092056 4.891202178420908
ltoes -12.647196916779704
rfemur -13.927405498796524 -2.4108250505765954 19.174010209685395
rtibia 21.347005226951627
rfoot -13.092700332156548 -2.164861773984403
rtoes 4.992783300116639
lowerback -1.5594264160493188 -0.6714809504326746 0.4656759604918565
upperback 5.022559996079153 -1.0110913665861998 1.6919083351235273
thorax 6.105341182263703 -0.5253035767541699 1.4284658272085557
lowerneck -11.290904095941286 0.5631251720850241 -2.3098262028148437
upperneck 35.81378610227617 1.154968521176939 0.7582066545461122
head 14.07978554376238 0.27978521066425494 0.8878765238299905
lclavicle 1.0938629973080779e-15 -2.2156995618237286e-15
lhumerus -15.727609217753395 -0.6969329186238407 88.32659585788515
lradius 18.647605196216304
lwrist -0.1551454528741969
lhand -23.519301533842164 -3.3647869405079267
lfingers 7.12502
lthumb 2.941648455160351 26.594692947587095
rclavicle 1.0938629973080779e-15 -2.2156995618237286e-15
rhumerus -18.205610402256283 -16.339195589426517 -82.937990448716
rradius 25.912802905856957
rwrist 31.853507748119473
rhand -18.154194372014402 -26.828797830927872
rfingers 7.12502
rthumb 8.12152559170959 -56.652697583841864
29
root 0.48578260621416774 17.506801143934013 -14.335689543012224 6.4714957568157025 -0.3279296009054571 -2.004416632792617
lfemur -14.28260550117509 7.848105303132371 -17.30210550241796
ltibia 20.37690505672391
lfoot -10.638699121661592 4.853522240339918
ltoes -12.551196913816238
rfemur -14.023705560587995 -2.387995057413432 19.156910301844874
rtibia 21.4620050484182
rfoot -13.150600301032902 -2.2076316206792708
rtoes 4.990573258445009
lowerback -1.4644966275630122 -0.6648780391734478 0.44181916468683463
upperback 4.989460090148872 -0.9992164751612446 1.6966582485362354
thorax 6.015871619010518 -0.5205376535789904 1.4485055273313177
lowerneck -11.313303977891596 0.5786278543165585 -2.336845531888494
upperneck 35.535486638500664 1.186398146759515 0.7544556512443237
head 13.956985828564031 0.2930907875707091 0.893156322022349
lclavicle 1.0938629981513856e-15 -2.2156995580581193e-15
lhumerus -15.766809183066782 -0.7065098454033873 88.24469609772144
lradius 18.67670539665084
lwrist -0.10828501348087105
lhand -23.543401408323295 -3.3566969704834495
lfingers 7.12502
lthumb 2.9183485793502033 26.60309291376665
rclavicle 1.0938629981513856e-15 -2.2156995580581193e-15
rhumerus -18.25831021715476 -16.313095589934242 -82.92669042199343
rradius 25.849302875334267
rwrist 31.92980766873908
rhand -18.1725942988148 -26.801998062535407
rfingers 7.12502
rthumb 8.10374567835436 -56.6265978010932
30
root 0.4820168480448063 17.501601173153126 -14.35258922944855 6.495415531636572 -0.24566727876236993 -1.9688272005126537
lfemur -14.494105003210235 7.819705520785313 -17.338705292765816
ltibia 20.591604945962793
lfoot -10.715299089695625 4.841712307717187
ltoes -12.596096826137082
rfemur -14.204304851172134 -2.3080054974071746 19.127210347346193
rtibia 21.676205195083206
rfoot -13.238100215076424 -2.362141380259031
rtoes 4.901413543887124
lowerback -1.3422866953988093 -0.6797338467720335 0.41307540914477053
upperback 4.9489402789072425 -1.015421364942459 1.7036581095123537
thorax 5.90376166615912 -0.5298914864753523 1.4720451994845265
lowerneck -11.392603733478225 0.5956205459905048 -2.310406182050616
upperneck 35.241287307814375 1.2303576940328185 0.6845533123627905
head 13.841686319092792 0.31026130456941964 0.8645194119084219
lclavicle 1.0938629914470668e-15 -2.215699556802913e-15
lhumerus -15.83610923523635 -0.7204338281782099 88.1638962057336
lradius 18.627405488396782
lwrist -0.1738384037495706
lhand -23.56450128781827 -3.3707869552561647
lfingers 7.12502
lthumb 2.8979187038376213 26.589292969328813
rclavicle 1.0938629914470668e-15 -2.215699556802913e-15
rhumerus -18.305510215698476 -16.258295540298903 -82.8901906184123
rradius 25.78700299888633
rwrist 31.986407632386435
rhand -18.16079438752459 -26.73999862579663
rfingers 7.12502
rthumb 8.115135658762938 -56.564198318875704
